<?xml version="1.0" standalone="no"?><!DOCTYPE svg PUBLIC "-//W3C//DTD SVG 1.1//EN" "http://www.w3.org/Graphics/SVG/1.1/DTD/svg11.dtd"><svg t="1482069310202" class="icon" style="" viewBox="0 0 1024 1024" version="1.1" xmlns="http://www.w3.org/2000/svg" p-id="3052" xmlns:xlink="http://www.w3.org/1999/xlink" width="32" height="32"><defs><style type="text/css"></style></defs><path d="M512 0C653.441034 0 781.647819 57.072698 874.287561 149.712439c92.639742 92.639742 149.712439 220.846527 149.712439 362.287561s-57.072698 269.647819-149.712439 362.287561c-92.639742 92.639742-220.846527 149.712439-362.287561 149.712439s-269.647819-57.072698-362.287561-149.712439C57.072698 781.647819 0 653.441034 0 512S57.899838 242.352181 150.53958 149.712439C243.179321 57.072698 370.558966 0 512 0zM863.534733 160.465267C773.376414 71.134087 649.305331 14.88853 512 14.88853S250.623586 71.134087 160.465267 160.465267 14.88853 374.694669 14.88853 512s55.418417 261.376414 145.576737 351.534733S374.694669 1009.11147 512 1009.11147s261.376414-55.418417 351.534733-145.576737S1009.11147 649.305331 1009.11147 512 953.693053 250.623586 863.534733 160.465267z" p-id="3053" fill="#1296db"></path><path d="M512 250.623586c-55.418417 0-105.87399 27.295638-143.095315 72.788368C330.85622 368.904685 306.869144 433.421648 305.214863 504.555735c0 3.308562-0.827141 6.617124-2.481422 9.098546l0 0c-2.481422 4.135703-5.789984 9.098546-8.271405 14.061389-2.481422 4.962843-5.789984 9.925687-8.271405 15.71567-11.579968 23.987076-18.197092 48.801292-20.678514 69.479806-2.481422 16.542811-0.827141 28.949919 3.308562 33.085622l0 0c0 0 0-0.827141 0.827141-0.827141 4.135703-1.654281 9.925687-5.789984 15.71567-11.579968 3.308562-3.308562 7.444265-8.271405 10.752827-13.234249 4.962843-7.444265 15.71567-9.098546 23.159935-4.135703 2.481422 2.481422 4.962843 4.962843 5.789984 7.444265l0 0c4.135703 10.752827 9.098546 21.505654 14.061389 31.431341 4.962843 9.925687 10.752827 19.851373 17.369952 28.949919 4.962843 7.444265 3.308562 18.197092-4.135703 23.159935-1.654281 0.827141-3.308562 1.654281-4.962843 2.481422-11.579968 4.135703-20.678514 9.098546-27.295638 15.71567-4.135703 4.135703-6.617124 8.271405-6.617124 11.579968 0 8.271405 9.925687 16.542811 25.641357 23.987076 19.851373 9.098546 47.147011 14.88853 78.578352 14.88853 18.197092 0 34.739903-1.654281 50.455574-4.962843 14.88853-3.308562 28.122779-8.271405 37.221325-14.061389 5.789984-3.308562 12.407108-3.308562 17.369952 0 9.925687 5.789984 22.332795 10.752827 37.221325 14.061389s31.431341 4.962843 50.455574 4.962843c30.6042 0 58.726979-5.789984 78.578352-14.88853 15.71567-7.444265 25.641357-15.71567 25.641357-23.987076 0-3.308562-2.481422-7.444265-6.617124-11.579968-6.617124-5.789984-16.542811-11.579968-28.122779-15.71567-9.098546-3.308562-13.234249-12.407108-9.925687-21.505654 0.827141-1.654281 0.827141-2.481422 1.654281-3.308562l0 0c6.617124-9.098546 11.579968-19.024233 17.369952-28.949919s9.925687-20.678514 14.061389-31.431341c3.308562-9.098546 13.234249-13.234249 21.505654-9.925687 3.308562 1.654281 6.617124 3.308562 8.271405 6.617124 3.308562 4.135703 6.617124 8.271405 9.925687 11.579968 5.789984 6.617124 10.752827 10.752827 15.71567 12.407108 0.827141 0.827141 0.827141 0.827141 0.827141 0.827141l0 0c4.135703-4.135703 4.962843-16.542811 3.308562-33.085622-2.481422-20.678514-9.098546-44.66559-20.678514-68.652666 0 0 0-0.827141-0.827141-0.827141-2.481422-4.962843-4.962843-9.925687-7.444265-14.88853-3.308562-4.962843-5.789984-9.925687-8.271405-14.061389-1.654281-3.308562-2.481422-6.617124-2.481422-9.098546-1.654281-71.134087-25.641357-134.82391-63.689822-181.14378C617.87399 278.746365 567.418417 250.623586 512 250.623586L512 250.623586zM343.263328 301.07916c43.011309-52.936995 102.565428-85.195477 168.736672-85.195477s125.725363 32.258481 168.736672 85.195477c41.357027 50.455574 68.652666 119.93538 71.134087 197.686591 2.481422 4.135703 4.962843 8.271405 7.444265 12.407108 2.481422 4.962843 5.789984 10.752827 8.271405 16.542811 0 0 0 0.827141 0.827141 0.827141 13.234249 27.295638 21.505654 55.418417 23.987076 79.405493 3.308562 27.295638-0.827141 49.628433-13.234249 61.208401-0.827141 0.827141-2.481422 1.654281-3.308562 2.481422-9.925687 7.444265-21.505654 7.444265-33.085622 3.308562-7.444265-3.308562-14.88853-8.271405-21.505654-14.88853-1.654281 3.308562-3.308562 6.617124-4.962843 9.098546-2.481422 4.962843-5.789984 10.752827-8.271405 15.71567 8.271405 4.135703 14.88853 9.098546 20.678514 14.88853 10.752827 10.752827 17.369952 23.159935 17.369952 36.394184 0 22.332795-17.369952 41.357027-44.66559 54.591276-23.987076 10.752827-56.245557 17.369952-91.812601 17.369952-20.678514 0-40.529887-2.481422-57.072698-6.617124-14.88853-3.308562-27.295638-7.444265-38.875606-13.234249-10.752827 5.789984-23.987076 9.925687-38.875606 13.234249-17.369952 4.135703-37.221325 6.617124-57.899838 6.617124-35.567044 0-67.825525-6.617124-91.812601-17.369952-28.122779-12.407108-44.66559-31.431341-44.66559-54.591276 0-13.234249 6.617124-25.641357 17.369952-36.394184 5.789984-4.962843 12.407108-9.925687 20.678514-14.88853-3.308562-4.962843-5.789984-9.925687-8.271405-15.71567-1.654281-3.308562-3.308562-6.617124-4.962843-9.925687-7.444265 6.617124-14.88853 11.579968-21.505654 14.88853-12.407108 4.962843-23.159935 4.135703-33.085622-3.308562-0.827141-0.827141-2.481422-1.654281-3.308562-2.481422-12.407108-11.579968-16.542811-33.912763-13.234249-61.208401 2.481422-23.987076 10.752827-52.109855 23.987076-79.405493 3.308562-6.617124 5.789984-12.407108 9.098546-17.369952 2.481422-4.135703 4.962843-8.271405 7.444265-11.579968 2.481422-76.924071 29.77706-146.403877 71.134087-197.686591L343.263328 301.07916zM267.993538 645.169628C267.993538 645.169628 267.993538 645.169628 267.993538 645.169628L267.993538 645.169628zM756.006462 645.169628 756.006462 645.169628 756.006462 645.169628z" p-id="3054" fill="#1296db"></path></svg>